%
M48
M72
T01C0.0320
T02C0.0354
T03C0.0400
T04C0.0512
T05C0.0591
T06C0.1181
%
T01
X16600Y5600
X16600Y6600
X16600Y9100
X16600Y10100
X16600Y12600
X16600Y13600
X14100Y15100
X14100Y16100
X14100Y17100
X14100Y18100
X15600Y18100
X15600Y16600
X18600Y16600
X18600Y18100
X19600Y13600
X19600Y12600
X19631Y11319
X19600Y10100
X19600Y9100
X19600Y6600
X19600Y5600
X19600Y4100
X22600Y4100
X22631Y11319
X11100Y15100
X11100Y16100
X11100Y17100
X11100Y18100
X9100Y18100
X8100Y16600
X8100Y15100
X9100Y15100
X5100Y15100
X5100Y16600
T02
X15413Y4475
T03
X21893Y6344
X21893Y7344
X21893Y8344
X21893Y9344
X7600Y18100
X6600Y18100
X5100Y18100
X4100Y18100
X2350Y7100
X2350Y5100
T04
X1538Y11131
X1538Y13100
T05
X5474Y10797
X13348Y8828
X13348Y4891
X5474Y2923
T06
X1675Y1675
X1675Y18210
X22147Y18210
X22147Y1675
M30
