G75*
%MOIN*%
%OFA0B0*%
%FSLAX24Y24*%
%IPPOS*%
%LPD*%
%AMOC8*
5,1,8,0,0,1.08239X$1,22.5*
%
%ADD10C,0.0040*%
%ADD11C,0.0258*%
%ADD12C,0.0030*%
%ADD13C,0.0050*%
%ADD14C,0.0060*%
%ADD15R,0.0150X0.0200*%
%ADD16C,0.0080*%
%ADD17R,0.0200X0.0150*%
D10*
X000720Y005870D02*
X000720Y006230D01*
X000960Y006230D01*
X001088Y006110D02*
X001208Y006230D01*
X001208Y005870D01*
X001088Y005870D02*
X001329Y005870D01*
X000840Y006050D02*
X000720Y006050D01*
X000745Y009058D02*
X001052Y009058D01*
X000745Y009058D02*
X000745Y009518D01*
X006902Y014220D02*
X006902Y014570D01*
X007077Y014570D01*
X007135Y014512D01*
X007135Y014395D01*
X007077Y014337D01*
X006902Y014337D01*
X007019Y014337D02*
X007135Y014220D01*
X007261Y014220D02*
X007494Y014454D01*
X007494Y014512D01*
X007436Y014570D01*
X007319Y014570D01*
X007261Y014512D01*
X007261Y014220D02*
X007494Y014220D01*
X007494Y015720D02*
X007261Y015720D01*
X007378Y015720D02*
X007378Y016070D01*
X007261Y015954D01*
X007135Y016012D02*
X007135Y015895D01*
X007077Y015837D01*
X006902Y015837D01*
X007019Y015837D02*
X007135Y015720D01*
X006902Y015720D02*
X006902Y016070D01*
X007077Y016070D01*
X007135Y016012D01*
X009630Y016902D02*
X009630Y017077D01*
X009688Y017135D01*
X009805Y017135D01*
X009863Y017077D01*
X009863Y016902D01*
X009863Y017019D02*
X009980Y017135D01*
X009805Y017261D02*
X009805Y017494D01*
X009980Y017436D02*
X009630Y017436D01*
X009805Y017261D01*
X009980Y016902D02*
X009630Y016902D01*
X016120Y017130D02*
X016120Y017480D01*
X016295Y017480D01*
X016354Y017422D01*
X016354Y017305D01*
X016295Y017247D01*
X016120Y017247D01*
X016237Y017247D02*
X016354Y017130D01*
X016479Y017188D02*
X016537Y017130D01*
X016654Y017130D01*
X016713Y017188D01*
X016713Y017247D01*
X016654Y017305D01*
X016596Y017305D01*
X016654Y017305D02*
X016713Y017364D01*
X016713Y017422D01*
X016654Y017480D01*
X016537Y017480D01*
X016479Y017422D01*
X016537Y018630D02*
X016479Y018688D01*
X016537Y018630D02*
X016654Y018630D01*
X016713Y018688D01*
X016713Y018805D01*
X016654Y018864D01*
X016596Y018864D01*
X016479Y018805D01*
X016479Y018980D01*
X016713Y018980D01*
X016354Y018922D02*
X016354Y018805D01*
X016295Y018747D01*
X016120Y018747D01*
X016237Y018747D02*
X016354Y018630D01*
X016120Y018630D02*
X016120Y018980D01*
X016295Y018980D01*
X016354Y018922D01*
X021433Y010789D02*
X021608Y010789D01*
X021667Y010730D01*
X021667Y010614D01*
X021608Y010555D01*
X021433Y010555D01*
X021433Y010439D02*
X021433Y010789D01*
X021550Y010555D02*
X021667Y010439D01*
X021792Y010497D02*
X021792Y010614D01*
X021968Y010614D01*
X022026Y010555D01*
X022026Y010497D01*
X021968Y010439D01*
X021851Y010439D01*
X021792Y010497D01*
X021792Y010614D02*
X021909Y010730D01*
X022026Y010789D01*
X021994Y003570D02*
X021761Y003570D01*
X021635Y003512D02*
X021635Y003395D01*
X021577Y003337D01*
X021402Y003337D01*
X021519Y003337D02*
X021635Y003220D01*
X021761Y003220D02*
X021761Y003278D01*
X021994Y003512D01*
X021994Y003570D01*
X021635Y003512D02*
X021577Y003570D01*
X021402Y003570D01*
X021402Y003220D01*
X001114Y014870D02*
X001114Y015330D01*
X000808Y015330D02*
X001114Y014870D01*
X000808Y014870D02*
X000808Y015330D01*
D11*
X017350Y014350D03*
X018850Y008350D03*
X018850Y004850D03*
D12*
X018747Y001985D02*
X018623Y001985D01*
X018562Y001924D01*
X018562Y001862D01*
X018623Y001800D01*
X018747Y001800D01*
X018808Y001738D01*
X018808Y001677D01*
X018747Y001615D01*
X018623Y001615D01*
X018562Y001677D01*
X018440Y001677D02*
X018378Y001615D01*
X018255Y001615D01*
X018193Y001677D01*
X018072Y001615D02*
X017825Y001615D01*
X017825Y001985D01*
X018072Y001985D01*
X018193Y001924D02*
X018193Y001862D01*
X018255Y001800D01*
X018378Y001800D01*
X018440Y001738D01*
X018440Y001677D01*
X018563Y001485D02*
X018563Y001238D01*
X018439Y001115D01*
X018316Y001238D01*
X018316Y001485D01*
X018194Y001485D02*
X018070Y001485D01*
X018132Y001485D02*
X018132Y001115D01*
X018070Y001115D02*
X018194Y001115D01*
X018010Y000985D02*
X017887Y000985D01*
X017825Y000924D01*
X017703Y000924D02*
X017457Y000677D01*
X017518Y000615D01*
X017642Y000615D01*
X017703Y000677D01*
X017703Y000924D01*
X017642Y000985D01*
X017518Y000985D01*
X017457Y000924D01*
X017457Y000677D01*
X017335Y000800D02*
X017088Y000800D01*
X016967Y000800D02*
X016967Y000677D01*
X016905Y000615D01*
X016782Y000615D01*
X016720Y000677D01*
X016720Y000800D02*
X016843Y000862D01*
X016905Y000862D01*
X016967Y000800D01*
X016967Y000985D02*
X016720Y000985D01*
X016720Y000800D01*
X016599Y000615D02*
X016352Y000615D01*
X016475Y000615D02*
X016475Y000985D01*
X016352Y000862D01*
X016230Y000924D02*
X015983Y000677D01*
X016045Y000615D01*
X016168Y000615D01*
X016230Y000677D01*
X016230Y000924D01*
X016168Y000985D01*
X016045Y000985D01*
X015983Y000924D01*
X015983Y000677D01*
X015862Y000615D02*
X015615Y000615D01*
X015862Y000862D01*
X015862Y000924D01*
X015800Y000985D01*
X015677Y000985D01*
X015615Y000924D01*
X015615Y001115D02*
X015738Y001115D01*
X015677Y001115D02*
X015677Y001485D01*
X015738Y001485D02*
X015615Y001485D01*
X015615Y001615D02*
X015862Y001615D01*
X015983Y001677D02*
X016045Y001615D01*
X016168Y001615D01*
X016230Y001677D01*
X016230Y001738D01*
X016168Y001800D01*
X016045Y001800D01*
X015983Y001862D01*
X015983Y001924D01*
X016045Y001985D01*
X016168Y001985D01*
X016230Y001924D01*
X016352Y001862D02*
X016475Y001985D01*
X016597Y001985D02*
X016782Y001985D01*
X016844Y001924D01*
X016844Y001800D01*
X016782Y001738D01*
X016597Y001738D01*
X016597Y001615D02*
X016597Y001985D01*
X016352Y001862D02*
X016352Y001738D01*
X016475Y001615D01*
X016414Y001485D02*
X016476Y001424D01*
X016476Y001362D01*
X016414Y001300D01*
X016229Y001300D01*
X016107Y001300D02*
X016107Y001177D01*
X016046Y001115D01*
X015922Y001115D01*
X015861Y001177D01*
X015861Y001424D01*
X015922Y001485D01*
X016046Y001485D01*
X016107Y001424D01*
X016107Y001300D02*
X015984Y001300D01*
X016229Y001115D02*
X016414Y001115D01*
X016476Y001177D01*
X016476Y001238D01*
X016414Y001300D01*
X016414Y001485D02*
X016229Y001485D01*
X016229Y001115D01*
X016721Y001115D02*
X016721Y001485D01*
X016844Y001485D02*
X016597Y001485D01*
X016965Y001615D02*
X017089Y001615D01*
X017027Y001615D02*
X017027Y001985D01*
X016965Y001985D02*
X017089Y001985D01*
X017211Y001985D02*
X017334Y001862D01*
X017334Y001738D01*
X017211Y001615D01*
X017334Y001485D02*
X017519Y001485D01*
X017581Y001424D01*
X017581Y001177D01*
X017519Y001115D01*
X017334Y001115D01*
X017334Y001485D01*
X017457Y001615D02*
X017457Y001985D01*
X017642Y001985D01*
X017703Y001924D01*
X017703Y001800D01*
X017642Y001738D01*
X017457Y001738D01*
X017580Y001738D02*
X017703Y001615D01*
X017702Y001485D02*
X017887Y001485D01*
X017949Y001424D01*
X017949Y001300D01*
X017887Y001238D01*
X017702Y001238D01*
X017702Y001115D02*
X017702Y001485D01*
X017826Y001238D02*
X017949Y001115D01*
X018010Y000985D02*
X018072Y000924D01*
X018072Y000862D01*
X017825Y000615D01*
X018072Y000615D01*
X018193Y000800D02*
X018440Y000800D01*
X018562Y000924D02*
X018623Y000985D01*
X018747Y000985D01*
X018808Y000924D01*
X018808Y000862D01*
X018562Y000615D01*
X018808Y000615D01*
X018930Y000615D02*
X018930Y000677D01*
X019177Y000924D01*
X019177Y000985D01*
X018930Y000985D01*
X018931Y001115D02*
X018684Y001115D01*
X018684Y001485D01*
X018931Y001485D01*
X019053Y001485D02*
X019238Y001485D01*
X019299Y001424D01*
X019299Y001300D01*
X019238Y001238D01*
X019053Y001238D01*
X019053Y001115D02*
X019053Y001485D01*
X018992Y001615D02*
X019115Y001615D01*
X019177Y001677D01*
X019177Y001924D01*
X019115Y001985D01*
X018992Y001985D01*
X018930Y001924D01*
X018930Y001677D01*
X018992Y001615D01*
X018808Y001924D02*
X018747Y001985D01*
X018440Y001924D02*
X018378Y001985D01*
X018255Y001985D01*
X018193Y001924D01*
X017948Y001800D02*
X017825Y001800D01*
X018684Y001300D02*
X018808Y001300D01*
X019176Y001238D02*
X019299Y001115D01*
X019666Y000985D02*
X019666Y000738D01*
X019790Y000615D01*
X019913Y000738D01*
X019913Y000985D01*
X020035Y000862D02*
X020158Y000985D01*
X020158Y000615D01*
X020035Y000615D02*
X020282Y000615D01*
X015862Y001985D02*
X015615Y001985D01*
X015615Y001615D01*
X015615Y001800D02*
X015738Y001800D01*
X013603Y004024D02*
X013506Y003928D01*
X013410Y004024D01*
X013410Y004218D01*
X013308Y004218D02*
X013115Y004218D01*
X013115Y004073D01*
X013212Y004121D01*
X013260Y004121D01*
X013308Y004073D01*
X013308Y003976D01*
X013260Y003928D01*
X013163Y003928D01*
X013115Y003976D01*
X013603Y004024D02*
X013603Y004218D01*
X007576Y003615D02*
X007383Y003615D01*
X007383Y003905D01*
X007282Y003808D02*
X007282Y003615D01*
X007282Y003760D02*
X007088Y003760D01*
X007088Y003808D02*
X007088Y003615D01*
X006987Y003615D02*
X006890Y003712D01*
X006939Y003712D02*
X006794Y003712D01*
X006794Y003615D02*
X006794Y003905D01*
X006939Y003905D01*
X006987Y003857D01*
X006987Y003760D01*
X006939Y003712D01*
X007088Y003808D02*
X007185Y003905D01*
X007282Y003808D01*
X006692Y003905D02*
X006499Y003905D01*
X006596Y003905D02*
X006596Y003615D01*
X006398Y003663D02*
X006398Y003905D01*
X006204Y003905D02*
X006204Y003663D01*
X006253Y003615D01*
X006349Y003615D01*
X006398Y003663D01*
X006103Y003615D02*
X005910Y003615D01*
X005910Y003905D01*
X006103Y003905D01*
X006006Y003760D02*
X005910Y003760D01*
X005808Y003615D02*
X005808Y003905D01*
X005615Y003905D02*
X005615Y003615D01*
X005808Y003615D02*
X005615Y003905D01*
X012928Y009601D02*
X012976Y009553D01*
X013073Y009553D01*
X013121Y009601D01*
X013121Y009698D01*
X013024Y009698D01*
X012928Y009794D02*
X012928Y009601D01*
X012928Y009794D02*
X012976Y009843D01*
X013073Y009843D01*
X013121Y009794D01*
X013222Y009843D02*
X013416Y009553D01*
X013416Y009843D01*
X013517Y009843D02*
X013662Y009843D01*
X013710Y009794D01*
X013710Y009601D01*
X013662Y009553D01*
X013517Y009553D01*
X013517Y009843D01*
X013222Y009843D02*
X013222Y009553D01*
X006594Y011615D02*
X006401Y011615D01*
X006401Y011905D01*
X006594Y011905D01*
X006497Y011760D02*
X006401Y011760D01*
X006300Y011712D02*
X006300Y011905D01*
X006300Y011712D02*
X006203Y011615D01*
X006106Y011712D01*
X006106Y011905D01*
X006006Y011905D02*
X005910Y011905D01*
X005958Y011905D02*
X005958Y011615D01*
X005910Y011615D02*
X006006Y011615D01*
X005808Y011615D02*
X005615Y011615D01*
X005615Y011905D01*
X003224Y014865D02*
X002977Y014865D01*
X003100Y014865D02*
X003100Y015235D01*
X002977Y015112D01*
X002855Y015174D02*
X002855Y015050D01*
X002793Y014988D01*
X002608Y014988D01*
X002608Y014865D02*
X002608Y015235D01*
X002793Y015235D01*
X002855Y015174D01*
X002487Y015235D02*
X002363Y015235D01*
X002425Y015235D02*
X002425Y014927D01*
X002363Y014865D01*
X002302Y014865D01*
X002240Y014927D01*
X004258Y017148D02*
X004307Y017148D01*
X004355Y017196D01*
X004355Y017438D01*
X004307Y017438D02*
X004403Y017438D01*
X004505Y017438D02*
X004650Y017438D01*
X004698Y017389D01*
X004698Y017293D01*
X004650Y017244D01*
X004505Y017244D01*
X004505Y017148D02*
X004505Y017438D01*
X004258Y017148D02*
X004210Y017196D01*
X004799Y017148D02*
X004993Y017341D01*
X004993Y017389D01*
X004944Y017438D01*
X004848Y017438D01*
X004799Y017389D01*
X004799Y017148D02*
X004993Y017148D01*
X006710Y017196D02*
X006758Y017148D01*
X006807Y017148D01*
X006855Y017196D01*
X006855Y017438D01*
X006807Y017438D02*
X006903Y017438D01*
X007005Y017438D02*
X007005Y017148D01*
X007005Y017244D02*
X007150Y017244D01*
X007198Y017293D01*
X007198Y017389D01*
X007150Y017438D01*
X007005Y017438D01*
X007299Y017389D02*
X007348Y017438D01*
X007444Y017438D01*
X007493Y017389D01*
X007493Y017341D01*
X007444Y017293D01*
X007493Y017244D01*
X007493Y017196D01*
X007444Y017148D01*
X007348Y017148D01*
X007299Y017196D01*
X007396Y017293D02*
X007444Y017293D01*
X007401Y018865D02*
X007648Y018865D01*
X007710Y018927D01*
X007710Y019050D01*
X007648Y019112D01*
X007525Y019112D01*
X007525Y018988D01*
X007401Y018865D02*
X007340Y018927D01*
X007340Y019050D01*
X007401Y019112D01*
X007401Y019233D02*
X007340Y019295D01*
X007340Y019418D01*
X007401Y019480D01*
X007463Y019480D01*
X007710Y019233D01*
X007710Y019480D01*
X006710Y019112D02*
X006340Y019112D01*
X006340Y018865D02*
X006710Y019112D01*
X006710Y018865D02*
X006340Y018865D01*
X005210Y018927D02*
X005148Y018865D01*
X004901Y018865D01*
X004840Y018927D01*
X004840Y019050D01*
X004901Y019112D01*
X005025Y019112D02*
X005025Y018988D01*
X005025Y019112D02*
X005148Y019112D01*
X005210Y019050D01*
X005210Y018927D01*
X005210Y019233D02*
X005210Y019480D01*
X005210Y019357D02*
X004840Y019357D01*
X004963Y019233D01*
X004210Y019112D02*
X003840Y019112D01*
X003840Y018865D02*
X004210Y019112D01*
X004210Y018865D02*
X003840Y018865D01*
X022615Y009482D02*
X022615Y009288D01*
X022663Y009240D01*
X022760Y009240D01*
X022808Y009288D01*
X022808Y009385D01*
X022712Y009385D01*
X022808Y009482D02*
X022760Y009530D01*
X022663Y009530D01*
X022615Y009482D01*
X022910Y009530D02*
X023103Y009240D01*
X023103Y009530D01*
X023204Y009530D02*
X023204Y009240D01*
X023349Y009240D01*
X023398Y009288D01*
X023398Y009482D01*
X023349Y009530D01*
X023204Y009530D01*
X022910Y009530D02*
X022910Y009240D01*
X022800Y008610D02*
X022677Y008610D01*
X022615Y008549D01*
X022615Y008302D01*
X022677Y008240D01*
X022800Y008240D01*
X022862Y008302D01*
X022862Y008425D01*
X022738Y008425D01*
X022862Y008549D02*
X022800Y008610D01*
X022983Y008487D02*
X023107Y008610D01*
X023107Y008240D01*
X023230Y008240D02*
X022983Y008240D01*
X023045Y007610D02*
X022983Y007549D01*
X023045Y007610D02*
X023168Y007610D01*
X023230Y007549D01*
X023230Y007487D01*
X022983Y007240D01*
X023230Y007240D01*
X022862Y007302D02*
X022862Y007425D01*
X022738Y007425D01*
X022615Y007302D02*
X022677Y007240D01*
X022800Y007240D01*
X022862Y007302D01*
X022862Y007549D02*
X022800Y007610D01*
X022677Y007610D01*
X022615Y007549D01*
X022615Y007302D01*
X022615Y006610D02*
X022800Y006610D01*
X022862Y006549D01*
X022862Y006425D01*
X022800Y006363D01*
X022615Y006363D01*
X022615Y006240D02*
X022615Y006610D01*
X022983Y006549D02*
X022983Y006487D01*
X023045Y006425D01*
X023168Y006425D01*
X023230Y006363D01*
X023230Y006302D01*
X023168Y006240D01*
X023045Y006240D01*
X022983Y006302D01*
X022983Y006549D02*
X023045Y006610D01*
X023168Y006610D01*
X023230Y006549D01*
D13*
X014687Y000600D02*
X004135Y000600D01*
X004135Y013120D01*
X014687Y013120D01*
X014687Y000600D01*
X016369Y004225D02*
X016519Y004225D01*
X016594Y004300D01*
X016594Y004600D01*
X016519Y004675D01*
X016369Y004675D01*
X016294Y004600D01*
X016294Y004300D01*
X016369Y004225D01*
X016754Y004300D02*
X016754Y004600D01*
X016829Y004675D01*
X016979Y004675D01*
X017054Y004600D01*
X017215Y004600D02*
X017290Y004675D01*
X017440Y004675D01*
X017515Y004600D01*
X017515Y004525D01*
X017440Y004450D01*
X017515Y004375D01*
X017515Y004300D01*
X017440Y004225D01*
X017290Y004225D01*
X017215Y004300D01*
X017054Y004300D02*
X016979Y004225D01*
X016829Y004225D01*
X016754Y004300D01*
X017365Y004450D02*
X017440Y004450D01*
X020638Y007168D02*
X020638Y007318D01*
X020638Y007243D02*
X021013Y007243D01*
X021088Y007168D01*
X021088Y007093D01*
X021013Y007018D01*
X020938Y007478D02*
X020938Y007703D01*
X020863Y007779D01*
X020713Y007779D01*
X020638Y007703D01*
X020638Y007478D01*
X021088Y007478D01*
X020863Y007939D02*
X020863Y008239D01*
X020638Y008164D02*
X020863Y007939D01*
X021088Y008164D02*
X020638Y008164D01*
X017515Y008150D02*
X017515Y008225D01*
X017440Y008300D01*
X017290Y008300D01*
X017215Y008225D01*
X017054Y008225D02*
X016979Y008300D01*
X016829Y008300D01*
X016754Y008225D01*
X016754Y007925D01*
X016829Y007850D01*
X016979Y007850D01*
X017054Y007925D01*
X017215Y007850D02*
X017515Y008150D01*
X017515Y007850D02*
X017215Y007850D01*
X016594Y007925D02*
X016594Y008225D01*
X016519Y008300D01*
X016369Y008300D01*
X016294Y008225D01*
X016294Y007925D01*
X016369Y007850D01*
X016519Y007850D01*
X016594Y007925D01*
X018650Y014400D02*
X018575Y014475D01*
X018575Y014775D01*
X018650Y014850D01*
X018800Y014850D01*
X018875Y014775D01*
X018875Y014475D01*
X018800Y014400D01*
X018650Y014400D01*
X019035Y014475D02*
X019110Y014400D01*
X019261Y014400D01*
X019336Y014475D01*
X019496Y014400D02*
X019796Y014400D01*
X019646Y014400D02*
X019646Y014850D01*
X019496Y014700D01*
X019336Y014775D02*
X019261Y014850D01*
X019110Y014850D01*
X019035Y014775D01*
X019035Y014475D01*
X012543Y018725D02*
X012242Y018725D01*
X012392Y018725D02*
X012392Y019175D01*
X012242Y019025D01*
X012082Y019100D02*
X012007Y019175D01*
X011857Y019175D01*
X011782Y019100D01*
X011782Y018800D01*
X011857Y018725D01*
X012007Y018725D01*
X012082Y018800D01*
X011625Y018725D02*
X011475Y018725D01*
X011550Y018725D02*
X011550Y019175D01*
X011475Y019175D02*
X011625Y019175D01*
D14*
X011450Y018600D02*
X012200Y018600D01*
X012202Y018561D01*
X012208Y018522D01*
X012217Y018484D01*
X012230Y018447D01*
X012247Y018411D01*
X012267Y018378D01*
X012291Y018346D01*
X012317Y018317D01*
X012346Y018291D01*
X012378Y018267D01*
X012411Y018247D01*
X012447Y018230D01*
X012484Y018217D01*
X012522Y018208D01*
X012561Y018202D01*
X012600Y018200D01*
X012639Y018202D01*
X012678Y018208D01*
X012716Y018217D01*
X012753Y018230D01*
X012789Y018247D01*
X012822Y018267D01*
X012854Y018291D01*
X012883Y018317D01*
X012909Y018346D01*
X012933Y018378D01*
X012953Y018411D01*
X012970Y018447D01*
X012983Y018484D01*
X012992Y018522D01*
X012998Y018561D01*
X013000Y018600D01*
X013750Y018600D01*
X013750Y014600D01*
X011450Y014600D01*
X011450Y018600D01*
X009500Y017500D02*
X009500Y017350D01*
X009450Y017300D01*
X009450Y015900D01*
X009500Y015850D01*
X009500Y015700D01*
X009498Y015683D01*
X009494Y015666D01*
X009487Y015650D01*
X009477Y015636D01*
X009464Y015623D01*
X009450Y015613D01*
X009434Y015606D01*
X009417Y015602D01*
X009400Y015600D01*
X008800Y015600D01*
X008783Y015602D01*
X008766Y015606D01*
X008750Y015613D01*
X008736Y015623D01*
X008723Y015636D01*
X008713Y015650D01*
X008706Y015666D01*
X008702Y015683D01*
X008700Y015700D01*
X008700Y015850D01*
X008750Y015900D01*
X008750Y017300D01*
X008700Y017350D01*
X008700Y017500D01*
X008702Y017517D01*
X008706Y017534D01*
X008713Y017550D01*
X008723Y017564D01*
X008736Y017577D01*
X008750Y017587D01*
X008766Y017594D01*
X008783Y017598D01*
X008800Y017600D01*
X009400Y017600D01*
X009417Y017598D01*
X009434Y017594D01*
X009450Y017587D01*
X009464Y017577D01*
X009477Y017564D01*
X009487Y017550D01*
X009494Y017534D01*
X009498Y017517D01*
X009500Y017500D01*
X007600Y016900D02*
X007600Y016300D01*
X007598Y016283D01*
X007594Y016266D01*
X007587Y016250D01*
X007577Y016236D01*
X007564Y016223D01*
X007550Y016213D01*
X007534Y016206D01*
X007517Y016202D01*
X007500Y016200D01*
X007350Y016200D01*
X007300Y016250D01*
X005900Y016250D01*
X005850Y016200D01*
X005700Y016200D01*
X005683Y016202D01*
X005666Y016206D01*
X005650Y016213D01*
X005636Y016223D01*
X005623Y016236D01*
X005613Y016250D01*
X005606Y016266D01*
X005602Y016283D01*
X005600Y016300D01*
X005600Y016900D01*
X005602Y016917D01*
X005606Y016934D01*
X005613Y016950D01*
X005623Y016964D01*
X005636Y016977D01*
X005650Y016987D01*
X005666Y016994D01*
X005683Y016998D01*
X005700Y017000D01*
X005850Y017000D01*
X005900Y016950D01*
X007300Y016950D01*
X007350Y017000D01*
X007500Y017000D01*
X007517Y016998D01*
X007534Y016994D01*
X007550Y016987D01*
X007564Y016977D01*
X007577Y016964D01*
X007587Y016950D01*
X007594Y016934D01*
X007598Y016917D01*
X007600Y016900D01*
X007500Y015500D02*
X007350Y015500D01*
X007300Y015450D01*
X005900Y015450D01*
X005850Y015500D01*
X005700Y015500D01*
X005683Y015498D01*
X005666Y015494D01*
X005650Y015487D01*
X005636Y015477D01*
X005623Y015464D01*
X005613Y015450D01*
X005606Y015434D01*
X005602Y015417D01*
X005600Y015400D01*
X005600Y014800D01*
X005602Y014783D01*
X005606Y014766D01*
X005613Y014750D01*
X005623Y014736D01*
X005636Y014723D01*
X005650Y014713D01*
X005666Y014706D01*
X005683Y014702D01*
X005700Y014700D01*
X005850Y014700D01*
X005900Y014750D01*
X007300Y014750D01*
X007350Y014700D01*
X007500Y014700D01*
X007517Y014702D01*
X007534Y014706D01*
X007550Y014713D01*
X007564Y014723D01*
X007577Y014736D01*
X007587Y014750D01*
X007594Y014766D01*
X007598Y014783D01*
X007600Y014800D01*
X007600Y015400D01*
X007598Y015417D01*
X007594Y015434D01*
X007587Y015450D01*
X007577Y015464D01*
X007564Y015477D01*
X007550Y015487D01*
X007534Y015494D01*
X007517Y015498D01*
X007500Y015500D01*
X016100Y016300D02*
X016100Y016900D01*
X016102Y016917D01*
X016106Y016934D01*
X016113Y016950D01*
X016123Y016964D01*
X016136Y016977D01*
X016150Y016987D01*
X016166Y016994D01*
X016183Y016998D01*
X016200Y017000D01*
X016350Y017000D01*
X016400Y016950D01*
X017800Y016950D01*
X017850Y017000D01*
X018000Y017000D01*
X018017Y016998D01*
X018034Y016994D01*
X018050Y016987D01*
X018064Y016977D01*
X018077Y016964D01*
X018087Y016950D01*
X018094Y016934D01*
X018098Y016917D01*
X018100Y016900D01*
X018100Y016300D01*
X018098Y016283D01*
X018094Y016266D01*
X018087Y016250D01*
X018077Y016236D01*
X018064Y016223D01*
X018050Y016213D01*
X018034Y016206D01*
X018017Y016202D01*
X018000Y016200D01*
X017850Y016200D01*
X017800Y016250D01*
X016400Y016250D01*
X016350Y016200D01*
X016200Y016200D01*
X016183Y016202D01*
X016166Y016206D01*
X016150Y016213D01*
X016136Y016223D01*
X016123Y016236D01*
X016113Y016250D01*
X016106Y016266D01*
X016102Y016283D01*
X016100Y016300D01*
X016200Y017700D02*
X016350Y017700D01*
X016400Y017750D01*
X017800Y017750D01*
X017850Y017700D01*
X018000Y017700D01*
X018017Y017702D01*
X018034Y017706D01*
X018050Y017713D01*
X018064Y017723D01*
X018077Y017736D01*
X018087Y017750D01*
X018094Y017766D01*
X018098Y017783D01*
X018100Y017800D01*
X018100Y018400D01*
X018098Y018417D01*
X018094Y018434D01*
X018087Y018450D01*
X018077Y018464D01*
X018064Y018477D01*
X018050Y018487D01*
X018034Y018494D01*
X018017Y018498D01*
X018000Y018500D01*
X017850Y018500D01*
X017800Y018450D01*
X016400Y018450D01*
X016350Y018500D01*
X016200Y018500D01*
X016183Y018498D01*
X016166Y018494D01*
X016150Y018487D01*
X016136Y018477D01*
X016123Y018464D01*
X016113Y018450D01*
X016106Y018434D01*
X016102Y018417D01*
X016100Y018400D01*
X016100Y017800D01*
X016102Y017783D01*
X016106Y017766D01*
X016113Y017750D01*
X016123Y017736D01*
X016136Y017723D01*
X016150Y017713D01*
X016166Y017706D01*
X016183Y017702D01*
X016200Y017700D01*
X016950Y014100D02*
X017700Y014100D01*
X017702Y014061D01*
X017708Y014022D01*
X017717Y013984D01*
X017730Y013947D01*
X017747Y013911D01*
X017767Y013878D01*
X017791Y013846D01*
X017817Y013817D01*
X017846Y013791D01*
X017878Y013767D01*
X017911Y013747D01*
X017947Y013730D01*
X017984Y013717D01*
X018022Y013708D01*
X018061Y013702D01*
X018100Y013700D01*
X018139Y013702D01*
X018178Y013708D01*
X018216Y013717D01*
X018253Y013730D01*
X018289Y013747D01*
X018322Y013767D01*
X018354Y013791D01*
X018383Y013817D01*
X018409Y013846D01*
X018433Y013878D01*
X018453Y013911D01*
X018470Y013947D01*
X018483Y013984D01*
X018492Y014022D01*
X018498Y014061D01*
X018500Y014100D01*
X019250Y014100D01*
X019250Y012100D01*
X016950Y012100D01*
X016950Y014100D01*
X020131Y011619D02*
X020131Y011019D01*
X020133Y011002D01*
X020137Y010985D01*
X020144Y010969D01*
X020154Y010955D01*
X020167Y010942D01*
X020181Y010932D01*
X020197Y010925D01*
X020214Y010921D01*
X020231Y010919D01*
X020381Y010919D01*
X020431Y010969D01*
X021831Y010969D01*
X021881Y010919D01*
X022031Y010919D01*
X022048Y010921D01*
X022065Y010925D01*
X022081Y010932D01*
X022095Y010942D01*
X022108Y010955D01*
X022118Y010969D01*
X022125Y010985D01*
X022129Y011002D01*
X022131Y011019D01*
X022131Y011619D01*
X022129Y011636D01*
X022125Y011653D01*
X022118Y011669D01*
X022108Y011683D01*
X022095Y011696D01*
X022081Y011706D01*
X022065Y011713D01*
X022048Y011717D01*
X022031Y011719D01*
X021881Y011719D01*
X021831Y011669D01*
X020431Y011669D01*
X020381Y011719D01*
X020231Y011719D01*
X020214Y011717D01*
X020197Y011713D01*
X020181Y011706D01*
X020167Y011696D01*
X020154Y011683D01*
X020144Y011669D01*
X020137Y011653D01*
X020133Y011636D01*
X020131Y011619D01*
X019250Y010600D02*
X016950Y010600D01*
X016950Y008600D01*
X017700Y008600D01*
X017702Y008639D01*
X017708Y008678D01*
X017717Y008716D01*
X017730Y008753D01*
X017747Y008789D01*
X017767Y008822D01*
X017791Y008854D01*
X017817Y008883D01*
X017846Y008909D01*
X017878Y008933D01*
X017911Y008953D01*
X017947Y008970D01*
X017984Y008983D01*
X018022Y008992D01*
X018061Y008998D01*
X018100Y009000D01*
X018139Y008998D01*
X018178Y008992D01*
X018216Y008983D01*
X018253Y008970D01*
X018289Y008953D01*
X018322Y008933D01*
X018354Y008909D01*
X018383Y008883D01*
X018409Y008854D01*
X018433Y008822D01*
X018453Y008789D01*
X018470Y008753D01*
X018483Y008716D01*
X018492Y008678D01*
X018498Y008639D01*
X018500Y008600D01*
X019250Y008600D01*
X019250Y010600D01*
X019250Y007100D02*
X016950Y007100D01*
X016950Y005100D01*
X017700Y005100D01*
X017702Y005139D01*
X017708Y005178D01*
X017717Y005216D01*
X017730Y005253D01*
X017747Y005289D01*
X017767Y005322D01*
X017791Y005354D01*
X017817Y005383D01*
X017846Y005409D01*
X017878Y005433D01*
X017911Y005453D01*
X017947Y005470D01*
X017984Y005483D01*
X018022Y005492D01*
X018061Y005498D01*
X018100Y005500D01*
X018139Y005498D01*
X018178Y005492D01*
X018216Y005483D01*
X018253Y005470D01*
X018289Y005453D01*
X018322Y005433D01*
X018354Y005409D01*
X018383Y005383D01*
X018409Y005354D01*
X018433Y005322D01*
X018453Y005289D01*
X018470Y005253D01*
X018483Y005216D01*
X018492Y005178D01*
X018498Y005139D01*
X018500Y005100D01*
X019250Y005100D01*
X019250Y007100D01*
X020200Y004500D02*
X020350Y004500D01*
X020400Y004450D01*
X021800Y004450D01*
X021850Y004500D01*
X022000Y004500D01*
X022017Y004498D01*
X022034Y004494D01*
X022050Y004487D01*
X022064Y004477D01*
X022077Y004464D01*
X022087Y004450D01*
X022094Y004434D01*
X022098Y004417D01*
X022100Y004400D01*
X022100Y003800D01*
X022098Y003783D01*
X022094Y003766D01*
X022087Y003750D01*
X022077Y003736D01*
X022064Y003723D01*
X022050Y003713D01*
X022034Y003706D01*
X022017Y003702D01*
X022000Y003700D01*
X021850Y003700D01*
X021800Y003750D01*
X020400Y003750D01*
X020350Y003700D01*
X020200Y003700D01*
X020183Y003702D01*
X020166Y003706D01*
X020150Y003713D01*
X020136Y003723D01*
X020123Y003736D01*
X020113Y003750D01*
X020106Y003766D01*
X020102Y003783D01*
X020100Y003800D01*
X020100Y004400D01*
X020102Y004417D01*
X020106Y004434D01*
X020113Y004450D01*
X020123Y004464D01*
X020136Y004477D01*
X020150Y004487D01*
X020166Y004494D01*
X020183Y004498D01*
X020200Y004500D01*
X003150Y004650D02*
X003150Y007550D01*
X003148Y007580D01*
X003143Y007610D01*
X003134Y007639D01*
X003121Y007666D01*
X003106Y007692D01*
X003087Y007716D01*
X003066Y007737D01*
X003042Y007756D01*
X003016Y007771D01*
X002989Y007784D01*
X002960Y007793D01*
X002930Y007798D01*
X002900Y007800D01*
X001800Y007800D01*
X001770Y007798D01*
X001740Y007793D01*
X001711Y007784D01*
X001684Y007771D01*
X001658Y007756D01*
X001634Y007737D01*
X001613Y007716D01*
X001594Y007692D01*
X001579Y007666D01*
X001566Y007639D01*
X001557Y007610D01*
X001552Y007580D01*
X001550Y007550D01*
X001550Y004650D01*
X001552Y004620D01*
X001557Y004590D01*
X001566Y004561D01*
X001579Y004534D01*
X001594Y004508D01*
X001613Y004484D01*
X001634Y004463D01*
X001658Y004444D01*
X001684Y004429D01*
X001711Y004416D01*
X001740Y004407D01*
X001770Y004402D01*
X001800Y004400D01*
X002900Y004400D01*
X002930Y004402D01*
X002960Y004407D01*
X002989Y004416D01*
X003016Y004429D01*
X003042Y004444D01*
X003066Y004463D01*
X003087Y004484D01*
X003106Y004508D01*
X003121Y004534D01*
X003134Y004561D01*
X003143Y004590D01*
X003148Y004620D01*
X003150Y004650D01*
D15*
X005525Y015100D03*
X005525Y016600D03*
X007675Y016600D03*
X007675Y015100D03*
X016025Y016600D03*
X016025Y018100D03*
X018175Y018100D03*
X018175Y016600D03*
X020056Y011319D03*
X022206Y011319D03*
X022175Y004100D03*
X020025Y004100D03*
D16*
X021643Y005844D02*
X022143Y005844D01*
X022393Y006094D01*
X022393Y006594D01*
X022143Y006844D01*
X022393Y007094D01*
X022393Y007594D01*
X022143Y007844D01*
X022393Y008094D01*
X022393Y008594D01*
X022143Y008844D01*
X022393Y009094D01*
X022393Y009594D01*
X022143Y009844D01*
X021643Y009844D01*
X021393Y009594D01*
X021393Y009094D01*
X021643Y008844D01*
X021393Y008594D01*
X021393Y008094D01*
X021643Y007844D01*
X021393Y007594D01*
X021393Y007094D01*
X021643Y006844D01*
X021393Y006594D01*
X021393Y006094D01*
X021643Y005844D01*
X008100Y017850D02*
X007850Y017600D01*
X007350Y017600D01*
X007100Y017850D01*
X006850Y017600D01*
X006350Y017600D01*
X006100Y017850D01*
X006100Y018350D01*
X006350Y018600D01*
X006850Y018600D01*
X007100Y018350D01*
X007350Y018600D01*
X007850Y018600D01*
X008100Y018350D01*
X008100Y017850D01*
X005600Y017850D02*
X005600Y018350D01*
X005350Y018600D01*
X004850Y018600D01*
X004600Y018350D01*
X004350Y018600D01*
X003850Y018600D01*
X003600Y018350D01*
X003600Y017850D01*
X003850Y017600D01*
X004350Y017600D01*
X004600Y017850D01*
X004850Y017600D01*
X005350Y017600D01*
X005600Y017850D01*
X003191Y014320D02*
X000632Y014320D01*
X000632Y009911D01*
X000238Y009911D01*
X000238Y014320D01*
X000632Y014320D01*
X003191Y014320D02*
X003191Y009911D01*
X000632Y009911D01*
D17*
X009100Y015525D03*
X009100Y017675D03*
M02*
